<?xml version="1.0" encoding="UTF-8" standalone="no"?>
<!-- Created with Inkscape (http://www.inkscape.org/) -->

<svg
   version="1.1"
   id="svg2"
   width="480"
   height="480"
   viewBox="0 0 480 480"
   sodipodi:docname="Backyard ADUs logo.ai"
   xmlns:inkscape="http://www.inkscape.org/namespaces/inkscape"
   xmlns:sodipodi="http://sodipodi.sourceforge.net/DTD/sodipodi-0.dtd"
   xmlns="http://www.w3.org/2000/svg"
   xmlns:svg="http://www.w3.org/2000/svg">
  <defs
     id="defs6">
    <clipPath
       clipPathUnits="userSpaceOnUse"
       id="clipPath16">
      <path
         d="M 0,360 H 360 V 0 H 0 Z"
         id="path14" />
    </clipPath>
  </defs>
  <sodipodi:namedview
     id="namedview4"
     pagecolor="#ffffff"
     bordercolor="#000000"
     borderopacity="0.25"
     inkscape:showpageshadow="2"
     inkscape:pageopacity="0.0"
     inkscape:pagecheckerboard="0"
     inkscape:deskcolor="#d1d1d1" />
  <g
     id="g8"
     inkscape:groupmode="layer"
     inkscape:label="Backyard ADUs logo"
     transform="matrix(1.3333333,0,0,-1.3333333,0,480)">
    <g
       id="g10">
      <g
         id="g12"
         clip-path="url(#clipPath16)">
        <path
           d="M 342.652,186.753 H 177.431 V 21.291 H 342.652 Z M 9.108,352.252 V 60.317 H 171.685 V 185.509 H 136.901 V 121.935 H 97.739 c -12.36,0 -17.466,5.129 -17.473,17.613 -0.012,20.174 0,40.347 0.002,60.521 v 5.901 H 55.399 l -0.196,0.991 c 33.375,28.066 66.751,56.131 100.227,84.28 33.663,-28.319 66.978,-56.345 100.293,-84.37 -0.176,-0.413 -0.352,-0.826 -0.528,-1.239 h -25.039 v -13.324 h 69.649 v 159.944 z"
           style="fill:#ffffff;fill-opacity:1;fill-rule:nonzero;stroke:none"
           id="path18" />
        <g
           id="g20"
           transform="translate(9.1079,352.2524)">
          <path
             d="m 0,0 h 290.697 v -159.945 h -69.649 v 13.325 h 25.039 c 0.176,0.413 0.352,0.826 0.528,1.238 -33.315,28.026 -66.63,56.051 -100.293,84.37 C 112.846,-89.16 79.47,-117.226 46.095,-145.291 l 0.196,-0.992 H 71.16 v -5.901 c -0.002,-20.173 -0.014,-40.347 -0.002,-60.521 0.008,-12.483 5.113,-17.613 17.473,-17.613 h 39.162 v 63.574 h 34.784 v -125.191 l -162.577,0 z"
             style="fill:#92bb70;fill-opacity:1;fill-rule:nonzero;stroke:none"
             id="path22" />
        </g>
        <g
           id="g24"
           transform="translate(271.2344,55.2803)">
          <path
             d="m 0,0 c 8.012,0 15.25,-0.014 22.488,0.003 7.551,0.018 10.269,2.623 10.308,10.087 0.058,11.266 0.004,22.535 0.025,33.802 0.003,1.551 0.162,3.102 0.278,5.171 H 48.226 C 28.062,65.971 8.919,82.023 -10.452,98.268 -29.881,81.959 -49.019,65.895 -68.157,49.83 c 0.201,-0.398 0.402,-0.797 0.603,-1.196 h 13.508 v -5.265 c 0,-11.563 -0.034,-23.128 0.018,-34.691 0.02,-4.726 2.467,-8.264 6.718,-8.444 8.533,-0.362 17.092,-0.107 26.177,-0.107 V 36.862 L 0,36.862 Z M 71.418,-33.989 H -93.803 V 131.473 H 71.418 Z"
             style="fill:#92bb70;fill-opacity:1;fill-rule:nonzero;stroke:none"
             id="path26" />
        </g>
        <g
           id="g28"
           transform="translate(271.2344,55.2803)">
          <path
             d="M 0,0 V 36.862 H -21.133 V 0.127 c -9.085,0 -17.644,-0.255 -26.177,0.107 -4.251,0.18 -6.698,3.718 -6.718,8.444 -0.052,11.563 -0.018,23.128 -0.018,34.691 v 5.265 h -13.508 c -0.201,0.399 -0.402,0.798 -0.603,1.196 19.138,16.065 38.276,32.129 57.705,48.438 C 8.919,82.023 28.062,65.971 48.226,49.063 H 33.099 C 32.983,46.994 32.824,45.443 32.821,43.892 32.8,32.625 32.854,21.356 32.796,10.09 32.757,2.626 30.039,0.021 22.488,0.003 15.25,-0.014 8.012,0 0,0"
             style="fill:#cfe5ae;fill-opacity:1;fill-rule:nonzero;stroke:none"
             id="path30" />
        </g>
        <g
           id="g32"
           transform="translate(26.0728,32.0576)">
          <path
             d="m 0,0 c 0,1.048 -0.393,1.772 -1.179,2.178 -0.782,0.404 -1.83,0.607 -3.14,0.607 H -7.71 v -5.783 h 3.427 c 0.477,0 0.968,0.041 1.481,0.125 0.513,0.082 0.975,0.231 1.394,0.446 0.415,0.214 0.753,0.517 1.015,0.909 C -0.131,-1.124 0,-0.618 0,0 m -0.819,10.032 c 0,0.858 -0.327,1.482 -0.982,1.874 -0.655,0.394 -1.627,0.59 -2.911,0.59 H -7.71 V 7.283 h 3.285 c 1.143,0 2.027,0.232 2.66,0.697 0.63,0.464 0.946,1.148 0.946,2.052 M 6.106,-0.571 c 0,-1.381 -0.273,-2.54 -0.822,-3.481 C 4.738,-4.992 4.01,-5.748 3.108,-6.319 2.202,-6.891 1.172,-7.302 0.019,-7.551 -1.135,-7.8 -2.321,-7.926 -3.533,-7.926 h -10.069 v 25.277 h 10.069 c 0.975,0 1.976,-0.101 2.998,-0.303 1.023,-0.203 1.951,-0.549 2.784,-1.035 0.833,-0.49 1.514,-1.15 2.038,-1.982 C 4.807,13.196 5.069,12.14 5.069,10.853 5.069,9.448 4.69,8.287 3.926,7.372 3.166,6.455 2.165,5.795 0.928,5.391 V 5.32 C 1.641,5.2 2.314,4.979 2.948,4.659 3.577,4.338 4.123,3.927 4.589,3.428 5.051,2.928 5.422,2.344 5.695,1.678 5.968,1.012 6.106,0.262 6.106,-0.571"
             style="fill:#92bb70;fill-opacity:1;fill-rule:nonzero;stroke:none"
             id="path34" />
        </g>
        <g
           id="g36"
           transform="translate(46.3853,31.8789)">
          <path
             d="m 0,0 h -0.75 c -0.64,0 -1.292,-0.03 -1.943,-0.089 -0.655,-0.059 -1.241,-0.173 -1.75,-0.338 -0.514,-0.168 -0.935,-0.412 -1.266,-0.733 -0.335,-0.32 -0.503,-0.744 -0.503,-1.267 0,-0.335 0.077,-0.62 0.233,-0.857 0.153,-0.238 0.35,-0.429 0.59,-0.571 0.236,-0.144 0.509,-0.244 0.822,-0.304 0.306,-0.06 0.604,-0.089 0.892,-0.089 1.19,0 2.099,0.327 2.729,0.982 C -0.313,-2.612 0,-1.727 0,-0.607 Z m -10.746,7.604 c 1.048,1 2.267,1.75 3.661,2.25 1.39,0.499 2.813,0.75 4.265,0.75 1.499,0 2.769,-0.185 3.802,-0.553 C 2.02,9.682 2.856,9.11 3.5,8.337 4.141,7.562 4.61,6.587 4.909,5.409 5.207,4.23 5.356,2.833 5.356,1.214 V -7.747 H 0 v 1.893 h -0.105 c -0.452,-0.74 -1.14,-1.311 -2.053,-1.714 -0.917,-0.405 -1.91,-0.607 -2.98,-0.607 -0.717,0 -1.452,0.095 -2.216,0.286 -0.761,0.19 -1.456,0.498 -2.089,0.928 -0.63,0.428 -1.146,0.999 -1.55,1.714 -0.408,0.714 -0.608,1.594 -0.608,2.642 0,1.285 0.35,2.32 1.052,3.106 0.702,0.784 1.608,1.392 2.715,1.819 1.105,0.43 2.335,0.715 3.693,0.857 1.357,0.144 2.678,0.215 3.963,0.215 v 0.286 c 0,0.88 -0.31,1.528 -0.928,1.944 C -1.725,6.039 -2.485,6.248 -3.392,6.248 -4.225,6.248 -5.025,6.07 -5.8,5.712 -6.576,5.355 -7.234,4.928 -7.78,4.427 Z"
             style="fill:#92bb70;fill-opacity:1;fill-rule:nonzero;stroke:none"
             id="path38" />
        </g>
        <g
           id="g40"
           transform="translate(68.3784,36.1641)">
          <path
             d="m 0,0 c -0.334,0.428 -0.786,0.773 -1.357,1.035 -0.572,0.261 -1.154,0.392 -1.75,0.392 -0.619,0 -1.176,-0.124 -1.678,-0.375 C -5.284,0.803 -5.713,0.47 -6.07,0.053 c -0.356,-0.417 -0.637,-0.899 -0.84,-1.447 -0.2,-0.547 -0.302,-1.129 -0.302,-1.749 0,-0.618 0.094,-1.202 0.287,-1.75 0.19,-0.547 0.47,-1.029 0.837,-1.444 0.368,-0.417 0.808,-0.744 1.321,-0.982 0.513,-0.239 1.088,-0.357 1.732,-0.357 0.594,0 1.183,0.113 1.769,0.338 0.582,0.226 1.051,0.553 1.408,0.983 l 3.25,-3.963 c -0.739,-0.715 -1.693,-1.274 -2.857,-1.677 -1.164,-0.406 -2.405,-0.609 -3.712,-0.609 -1.404,0 -2.718,0.215 -3.933,0.643 -1.219,0.43 -2.275,1.054 -3.173,1.874 -0.899,0.822 -1.605,1.816 -2.118,2.983 -0.517,1.166 -0.772,2.486 -0.772,3.961 0,1.453 0.255,2.761 0.772,3.927 0.513,1.166 1.219,2.16 2.118,2.983 0.898,0.82 1.954,1.45 3.173,1.891 1.215,0.441 2.514,0.661 3.897,0.661 0.64,0 1.277,-0.06 1.91,-0.178 0.63,-0.12 1.238,-0.281 1.82,-0.483 C 1.099,5.455 1.634,5.205 2.125,4.909 2.613,4.61 3.035,4.283 3.392,3.927 Z"
             style="fill:#92bb70;fill-opacity:1;fill-rule:nonzero;stroke:none"
             id="path42" />
        </g>
        <g
           id="g44"
           transform="translate(93.1558,24.1318)">
          <path
             d="m 0,0 h -7.249 l -5.818,8.533 h -0.106 V 0 h -5.891 v 26.99 h 5.891 V 10.567 h 0.106 l 5.676,7.213 h 7.103 L -7.14,9.747 Z"
             style="fill:#92bb70;fill-opacity:1;fill-rule:nonzero;stroke:none"
             id="path46" />
        </g>
        <g
           id="g48"
           transform="translate(104.9019,21.4541)">
          <path
             d="m 0,0 c -0.356,-0.928 -0.757,-1.754 -1.197,-2.48 -0.441,-0.726 -0.965,-1.344 -1.572,-1.858 -0.604,-0.511 -1.321,-0.896 -2.14,-1.159 -0.822,-0.262 -1.79,-0.393 -2.911,-0.393 -0.546,0 -1.114,0.035 -1.696,0.108 -0.582,0.071 -1.088,0.165 -1.517,0.285 l 0.644,4.926 c 0.284,-0.095 0.6,-0.171 0.946,-0.232 0.346,-0.059 0.659,-0.089 0.946,-0.089 0.903,0 1.558,0.207 1.962,0.624 0.407,0.417 0.749,1.006 1.036,1.767 l 0.572,1.465 -7.427,17.494 h 6.499 L -1.892,9.033 h 0.105 L 1.75,20.458 h 6.212 z"
             style="fill:#92bb70;fill-opacity:1;fill-rule:nonzero;stroke:none"
             id="path50" />
        </g>
        <g
           id="g52"
           transform="translate(125.6035,31.8789)">
          <path
             d="m 0,0 h -0.75 c -0.64,0 -1.292,-0.03 -1.943,-0.089 -0.655,-0.059 -1.241,-0.173 -1.75,-0.338 -0.513,-0.168 -0.935,-0.412 -1.266,-0.733 -0.335,-0.32 -0.502,-0.744 -0.502,-1.267 0,-0.335 0.076,-0.62 0.232,-0.857 0.153,-0.238 0.35,-0.429 0.59,-0.571 0.236,-0.144 0.509,-0.244 0.822,-0.304 0.306,-0.06 0.604,-0.089 0.892,-0.089 1.19,0 2.099,0.327 2.729,0.982 C -0.313,-2.612 0,-1.727 0,-0.607 Z m -10.746,7.604 c 1.048,1 2.267,1.75 3.661,2.25 1.39,0.499 2.813,0.75 4.265,0.75 1.499,0 2.769,-0.185 3.802,-0.553 C 2.02,9.682 2.856,9.11 3.5,8.337 4.141,7.562 4.61,6.587 4.909,5.409 5.207,4.23 5.356,2.833 5.356,1.214 V -7.747 H 0 v 1.893 h -0.105 c -0.452,-0.74 -1.14,-1.311 -2.053,-1.714 -0.917,-0.405 -1.91,-0.607 -2.98,-0.607 -0.717,0 -1.452,0.095 -2.216,0.286 -0.761,0.19 -1.456,0.498 -2.089,0.928 -0.629,0.428 -1.146,0.999 -1.55,1.714 -0.408,0.714 -0.608,1.594 -0.608,2.642 0,1.285 0.35,2.32 1.052,3.106 0.702,0.784 1.608,1.392 2.715,1.819 1.105,0.43 2.335,0.715 3.693,0.857 1.357,0.144 2.678,0.215 3.963,0.215 v 0.286 c 0,0.88 -0.31,1.528 -0.928,1.944 C -1.725,6.039 -2.485,6.248 -3.392,6.248 -4.225,6.248 -5.025,6.07 -5.8,5.712 -6.576,5.355 -7.234,4.928 -7.78,4.427 Z"
             style="fill:#92bb70;fill-opacity:1;fill-rule:nonzero;stroke:none"
             id="path54" />
        </g>
        <g
           id="g56"
           transform="translate(146.8472,37.0918)">
          <path
             d="m 0,0 c -0.262,0.071 -0.517,0.118 -0.768,0.143 -0.251,0.023 -0.495,0.036 -0.731,0.036 -0.786,0 -1.448,-0.144 -1.983,-0.428 -0.535,-0.286 -0.965,-0.63 -1.285,-1.031 -0.32,-0.405 -0.553,-0.845 -0.695,-1.32 -0.142,-0.474 -0.215,-0.889 -0.215,-1.245 v -9.115 h -5.855 V 4.798 h 5.641 v -2.57 h 0.073 c 0.451,0.911 1.091,1.653 1.924,2.228 0.834,0.575 1.798,0.862 2.894,0.862 0.236,0 0.469,-0.01 0.694,-0.034 0.23,-0.024 0.411,-0.06 0.557,-0.107 z"
             style="fill:#92bb70;fill-opacity:1;fill-rule:nonzero;stroke:none"
             id="path58" />
        </g>
        <g
           id="g60"
           transform="translate(162.0576,33.0566)">
          <path
             d="M 0,0 C 0,0.571 -0.102,1.132 -0.306,1.679 -0.506,2.225 -0.793,2.715 -1.161,3.142 -1.532,3.571 -1.976,3.915 -2.5,4.178 -3.024,4.439 -3.621,4.57 -4.287,4.57 -4.974,4.57 -5.582,4.439 -6.106,4.178 -6.63,3.915 -7.07,3.577 -7.427,3.16 -7.783,2.743 -8.053,2.262 -8.231,1.714 -8.409,1.166 -8.497,0.607 -8.497,0.036 c 0,-0.571 0.088,-1.137 0.266,-1.695 0.178,-0.559 0.448,-1.054 0.804,-1.482 0.357,-0.429 0.797,-0.773 1.321,-1.035 0.524,-0.261 1.132,-0.392 1.819,-0.392 0.666,0 1.263,0.131 1.787,0.392 0.524,0.262 0.968,0.606 1.339,1.035 0.368,0.428 0.655,0.915 0.855,1.463 C -0.102,-1.13 0,-0.569 0,0 m 0.215,-8.925 v 2.321 H 0.142 c -0.571,-0.905 -1.386,-1.6 -2.445,-2.087 -1.059,-0.489 -2.184,-0.734 -3.374,-0.734 -1.335,0 -2.525,0.262 -3.569,0.786 -1.048,0.524 -1.936,1.219 -2.66,2.089 -0.728,0.867 -1.281,1.874 -1.659,3.017 -0.383,1.142 -0.572,2.332 -0.572,3.569 0,1.237 0.197,2.422 0.59,3.552 0.389,1.132 0.949,2.125 1.677,2.981 0.724,0.858 1.605,1.536 2.642,2.035 1.033,0.5 2.194,0.75 3.478,0.75 1.311,0 2.417,-0.25 3.323,-0.75 0.903,-0.499 1.605,-1.046 2.103,-1.641 h 0.073 v 11.102 h 5.855 v -26.99 z"
             style="fill:#92bb70;fill-opacity:1;fill-rule:nonzero;stroke:none"
             id="path62" />
        </g>
        <g
           id="g64"
           transform="translate(192.5039,33.1289)">
          <path
             d="M 0,0 H 11.139 L 5.567,13.424 Z m -3.715,-8.997 h -2.82 L 4.389,16.279 h 2.5 L 17.743,-8.997 H 14.887 L 12.1,-2.355 H -0.964 Z"
             style="fill:#ffffff;fill-opacity:1;fill-rule:nonzero;stroke:none"
             id="path66" />
        </g>
        <g
           id="g68"
           transform="translate(223.3145,26.417)">
          <path
             d="m 0,0 h 5.105 c 1.904,0 3.563,0.297 4.978,0.892 1.416,0.594 2.592,1.376 3.52,2.339 0.927,0.963 1.623,2.064 2.088,3.303 0.462,1.237 0.695,2.511 0.695,3.819 0,1.308 -0.233,2.582 -0.695,3.821 -0.465,1.237 -1.161,2.338 -2.088,3.302 -0.928,0.964 -2.104,1.743 -3.52,2.338 -1.415,0.595 -3.074,0.893 -4.978,0.893 H 0 Z m -2.572,22.991 h 8.39 c 1.569,0 3.149,-0.262 4.731,-0.784 1.583,-0.524 3.01,-1.315 4.283,-2.375 1.273,-1.059 2.304,-2.38 3.09,-3.963 0.786,-1.583 1.175,-3.422 1.175,-5.516 0,-2.118 -0.389,-3.962 -1.175,-5.533 C 17.136,3.248 16.105,1.933 14.832,0.875 13.559,-0.186 12.132,-0.977 10.549,-1.499 8.967,-2.022 7.387,-2.285 5.818,-2.285 h -8.39 z"
             style="fill:#ffffff;fill-opacity:1;fill-rule:nonzero;stroke:none"
             id="path70" />
        </g>
        <g
           id="g72"
           transform="translate(263.8701,23.4902)">
          <path
             d="m 0,0 c -1.903,0 -3.465,0.327 -4.676,0.98 -1.216,0.656 -2.179,1.483 -2.893,2.482 -0.713,1.001 -1.208,2.089 -1.481,3.267 -0.273,1.178 -0.411,2.29 -0.411,3.337 v 15.852 h 2.568 V 10.353 c 0,-1.023 0.121,-2.017 0.358,-2.981 C -6.296,6.407 -5.91,5.551 -5.375,4.801 -4.836,4.052 -4.13,3.443 -3.25,2.979 -2.369,2.516 -1.285,2.285 0,2.285 c 1.284,0 2.369,0.231 3.249,0.694 0.881,0.464 1.587,1.073 2.122,1.822 0.538,0.75 0.924,1.606 1.16,2.571 0.24,0.964 0.357,1.958 0.357,2.981 V 25.918 H 9.461 V 10.066 C 9.461,9.019 9.322,7.907 9.05,6.729 8.776,5.551 8.282,4.463 7.568,3.462 6.855,2.463 5.884,1.636 4.657,0.98 3.432,0.327 1.881,0 0,0"
             style="fill:#ffffff;fill-opacity:1;fill-rule:nonzero;stroke:none"
             id="path74" />
        </g>
        <g
           id="g76"
           transform="translate(295.4258,36.877)">
          <path
             d="m 0,0 c -0.356,0.689 -0.898,1.256 -1.622,1.696 -0.729,0.441 -1.555,0.66 -2.482,0.66 -0.429,0 -0.859,-0.046 -1.289,-0.141 C -5.818,2.118 -6.2,1.964 -6.531,1.751 -6.866,1.536 -7.136,1.261 -7.336,0.929 -7.539,0.596 -7.642,0.202 -7.642,-0.249 c 0,-0.786 0.325,-1.388 0.965,-1.803 0.644,-0.417 1.656,-0.767 3.035,-1.053 1.976,-0.406 3.435,-0.994 4.373,-1.767 0.94,-0.775 1.413,-1.815 1.413,-3.124 0,-0.953 -0.186,-1.756 -0.553,-2.411 -0.371,-0.655 -0.852,-1.19 -1.448,-1.607 -0.594,-0.416 -1.267,-0.713 -2.017,-0.891 -0.749,-0.178 -1.506,-0.268 -2.267,-0.268 -1.262,0 -2.489,0.263 -3.678,0.784 -1.191,0.525 -2.165,1.345 -2.926,2.464 l 1.929,1.429 c 0.425,-0.739 1.058,-1.358 1.891,-1.857 0.83,-0.5 1.747,-0.749 2.748,-0.749 0.524,0 1.023,0.047 1.499,0.142 0.477,0.095 0.892,0.262 1.248,0.5 0.361,0.237 0.645,0.541 0.859,0.91 0.215,0.369 0.32,0.828 0.32,1.375 0,0.879 -0.422,1.54 -1.266,1.982 -0.844,0.44 -2.067,0.849 -3.661,1.232 -0.498,0.118 -1.029,0.268 -1.587,0.445 -0.559,0.179 -1.077,0.441 -1.553,0.787 -0.477,0.343 -0.87,0.778 -1.179,1.302 -0.31,0.523 -0.462,1.177 -0.462,1.963 0,0.858 0.164,1.589 0.498,2.196 0.335,0.606 0.779,1.107 1.34,1.499 0.559,0.394 1.196,0.685 1.91,0.875 0.713,0.19 1.452,0.287 2.212,0.287 1.165,0 2.297,-0.264 3.392,-0.787 C 0.488,3.082 1.311,2.344 1.856,1.393 Z"
             style="fill:#ffffff;fill-opacity:1;fill-rule:nonzero;stroke:none"
             id="path78" />
        </g>
      </g>
    </g>
  </g>
</svg>
